<svg width="30" height="30" viewBox="0 0 30 30" fill="none" xmlns="http://www.w3.org/2000/svg">
<path d="M26.9325 9.92438C26.5809 9.57287 26.1041 9.3754 25.6069 9.3754C25.1097 9.3754 24.6329 9.57287 24.2813 9.92438L15 19.2056L5.71875 9.92438C5.36512 9.58283 4.89149 9.39384 4.39987 9.39811C3.90825 9.40239 3.43798 9.59958 3.09034 9.94722C2.7427 10.2949 2.54551 10.7651 2.54124 11.2568C2.53697 11.7484 2.72596 12.222 3.0675 12.5756L13.6744 23.1825C14.026 23.534 14.5028 23.7315 15 23.7315C15.4972 23.7315 15.974 23.534 16.3256 23.1825L26.9325 12.5756C27.284 12.224 27.4815 11.7472 27.4815 11.25C27.4815 10.7528 27.284 10.276 26.9325 9.92438Z" fill="white"/>
</svg>
